{
  "accessors": [
    {
      "bufferView": 2,
      "componentType": 5126,
      "count": 3950,
      "max": [
        0.9986500144004822,
        0.9986500144004822,
        5.467090129852295
      ],
      "min": [
        -0.9986500144004822,
        -0.9986500144004822,
        0.0
      ],
      "type": "VEC3"
    },
    {
      "bufferView": 2,
      "byteOffset": 47400,
      "componentType": 5126,
      "count": 3950,
      "max": [
        1.0,
        1.0,
        1.0
      ],
      "min": [
        -1.0,
        -1.0,
        -1.0
      ],
      "type": "VEC3"
    },
    {
      "bufferView": 1,
      "componentType": 5126,
      "count": 3950,
      "max": [
        0.0,
        0.0
      ],
      "min": [
        0.0,
        0.0
      ],
      "type": "VEC2"
    },
    {
      "bufferView": 0,
      "componentType": 5125,
      "count": 22980,
      "type": "SCALAR"
    },
    {
      "bufferView": 2,
      "byteOffset": 94800,
      "componentType": 5126,
      "count": 17947,
      "max": [
        0.9995700120925903,
        0.9994099736213684,
        5.467659950256348
      ],
      "min": [
        -0.9996299743652344,
        -0.9996299743652344,
        0.6268399953842163
      ],
      "type": "VEC3"
    },
    {
      "bufferView": 2,
      "byteOffset": 310164,
      "componentType": 5126,
      "count": 17947,
      "max": [
        0.9998963475227356,
        0.999742865562439,
        1.0
      ],
      "min": [
        -0.9999656081199646,
        -0.9999653697013855,
        -3.000029937538784e-05
      ],
      "type": "VEC3"
    },
    {
      "bufferView": 1,
      "byteOffset": 31600,
      "componentType": 5126,
      "count": 17947,
      "max": [
        0.0,
        0.0
      ],
      "min": [
        0.0,
        0.0
      ],
      "type": "VEC2"
    },
    {
      "bufferView": 0,
      "byteOffset": 91920,
      "componentType": 5125,
      "count": 48960,
      "type": "SCALAR"
    },
    {
      "bufferView": 2,
      "byteOffset": 525528,
      "componentType": 5126,
      "count": 1509,
      "max": [
        0.3799000084400177,
        -0.919409990310669,
        0.3237699866294861
      ],
      "min": [
        -0.38881999254226685,
        -1.001729965209961,
        0.09303999692201614
      ],
      "type": "VEC3"
    },
    {
      "bufferView": 2,
      "byteOffset": 543636,
      "componentType": 5126,
      "count": 1509,
      "max": [
        0.9989048838615417,
        0.9999993443489075,
        0.9999967217445374
      ],
      "min": [
        -0.9999025464057922,
        -0.999999463558197,
        -0.9999927878379822
      ],
      "type": "VEC3"
    },
    {
      "bufferView": 1,
      "byteOffset": 175176,
      "componentType": 5126,
      "count": 1509,
      "max": [
        0.0,
        0.0
      ],
      "min": [
        0.0,
        0.0
      ],
      "type": "VEC2"
    },
    {
      "bufferView": 0,
      "byteOffset": 287760,
      "componentType": 5125,
      "count": 4560,
      "type": "SCALAR"
    },
    {
      "bufferView": 2,
      "byteOffset": 561744,
      "componentType": 5126,
      "count": 627,
      "max": [
        0.47679999470710754,
        0.09300000220537186,
        5.467609882354736
      ],
      "min": [
        -0.5178499817848206,
        -0.08455000072717667,
        5.456110000610352
      ],
      "type": "VEC3"
    },
    {
      "bufferView": 2,
      "byteOffset": 569268,
      "componentType": 5126,
      "count": 627,
      "max": [
        1.0,
        1.0,
        1.0
      ],
      "min": [
        -1.0,
        -1.0,
        -1.0
      ],
      "type": "VEC3"
    },
    {
      "bufferView": 1,
      "byteOffset": 187248,
      "componentType": 5126,
      "count": 627,
      "max": [
        0.0,
        0.0
      ],
      "min": [
        0.0,
        0.0
      ],
      "type": "VEC2"
    },
    {
      "bufferView": 0,
      "byteOffset": 306000,
      "componentType": 5125,
      "count": 2376,
      "type": "SCALAR"
    },
    {
      "bufferView": 2,
      "byteOffset": 576792,
      "componentType": 5126,
      "count": 540,
      "max": [
        0.9979299902915955,
        0.9979299902915955,
        5.467080116271973
      ],
      "min": [
        -0.9979299902915955,
        -0.9979299902915955,
        5.4165802001953125
      ],
      "type": "VEC3"
    },
    {
      "bufferView": 2,
      "byteOffset": 583272,
      "componentType": 5126,
      "count": 540,
      "max": [
        0.9985629320144653,
        0.9985629320144653,
        1.0
      ],
      "min": [
        -0.9985629320144653,
        -0.998564600944519,
        -0.5877128839492798
      ],
      "type": "VEC3"
    },
    {
      "bufferView": 1,
      "byteOffset": 192264,
      "componentType": 5126,
      "count": 540,
      "max": [
        0.9996899962425232,
        1.000309944152832
      ],
      "min": [
        -0.000699999975040555,
        -0.0006000000284984708
      ],
      "type": "VEC2"
    },
    {
      "bufferView": 0,
      "byteOffset": 315504,
      "componentType": 5125,
      "count": 2880,
      "type": "SCALAR"
    },
    {
      "bufferView": 2,
      "byteOffset": 589752,
      "componentType": 5126,
      "count": 3362,
      "max": [
        1.000599980354309,
        0.9986600279808044,
        0.536870002746582
      ],
      "min": [
        -0.9967100024223328,
        -0.9986500144004822,
        0.0
      ],
      "type": "VEC3"
    },
    {
      "bufferView": 2,
      "byteOffset": 630096,
      "componentType": 5126,
      "count": 3362,
      "max": [
        1.0,
        1.0,
        1.0
      ],
      "min": [
        -1.0,
        -1.0,
        -1.0
      ],
      "type": "VEC3"
    },
    {
      "bufferView": 1,
      "byteOffset": 196584,
      "componentType": 5126,
      "count": 3362,
      "max": [
        0.0,
        0.0
      ],
      "min": [
        0.0,
        0.0
      ],
      "type": "VEC2"
    },
    {
      "bufferView": 0,
      "byteOffset": 327024,
      "componentType": 5125,
      "count": 19452,
      "type": "SCALAR"
    },
    {
      "bufferView": 2,
      "byteOffset": 670440,
      "componentType": 5126,
      "count": 1645,
      "max": [
        0.8595399856567383,
        0.8575999736785889,
        0.5374400019645691
      ],
      "min": [
        -0.855650007724762,
        -0.8575900197029114,
        0.5338699817657471
      ],
      "type": "VEC3"
    },
    {
      "bufferView": 2,
      "byteOffset": 690180,
      "componentType": 5126,
      "count": 1645,
      "max": [
        0.7184444665908813,
        0.71845942735672,
        1.0
      ],
      "min": [
        -0.7184740304946899,
        -0.71845942735672,
        0.6955415606498718
      ],
      "type": "VEC3"
    },
    {
      "bufferView": 1,
      "byteOffset": 223480,
      "componentType": 5126,
      "count": 1645,
      "max": [
        0.0,
        0.0
      ],
      "min": [
        0.0,
        0.0
      ],
      "type": "VEC2"
    },
    {
      "bufferView": 0,
      "byteOffset": 404832,
      "componentType": 5125,
      "count": 4500,
      "type": "SCALAR"
    },
    {
      "bufferView": 2,
      "byteOffset": 709920,
      "componentType": 5126,
      "count": 1641,
      "max": [
        0.20241999626159668,
        -0.9722099900245667,
        0.18404999375343323
      ],
      "min": [
        -0.22315999865531921,
        -0.9995099902153015,
        0.056460000574588776
      ],
      "type": "VEC3"
    },
    {
      "bufferView": 2,
      "byteOffset": 729612,
      "componentType": 5126,
      "count": 1641,
      "max": [
        0.9992502331733704,
        0.9999613165855408,
        0.9999966025352478
      ],
      "min": [
        -0.9994334578514099,
        -0.9999614357948303,
        -1.0
      ],
      "type": "VEC3"
    },
    {
      "bufferView": 1,
      "byteOffset": 236640,
      "componentType": 5126,
      "count": 1641,
      "max": [
        0.0,
        0.0
      ],
      "min": [
        0.0,
        0.0
      ],
      "type": "VEC2"
    },
    {
      "bufferView": 0,
      "byteOffset": 422832,
      "componentType": 5125,
      "count": 4548,
      "type": "SCALAR"
    },
    {
      "bufferView": 2,
      "byteOffset": 749304,
      "componentType": 5126,
      "count": 627,
      "max": [
        0.47874000668525696,
        0.09300000220537186,
        0.5374000072479248
      ],
      "min": [
        -0.5159000158309937,
        -0.0845400020480156,
        0.5259000062942505
      ],
      "type": "VEC3"
    },
    {
      "bufferView": 2,
      "byteOffset": 756828,
      "componentType": 5126,
      "count": 627,
      "max": [
        1.0,
        1.0,
        1.0
      ],
      "min": [
        -1.0,
        -1.0,
        -1.0
      ],
      "type": "VEC3"
    },
    {
      "bufferView": 1,
      "byteOffset": 249768,
      "componentType": 5126,
      "count": 627,
      "max": [
        0.0,
        0.0
      ],
      "min": [
        0.0,
        0.0
      ],
      "type": "VEC2"
    },
    {
      "bufferView": 0,
      "byteOffset": 441024,
      "componentType": 5125,
      "count": 2376,
      "type": "SCALAR"
    },
    {
      "bufferView": 2,
      "byteOffset": 764352,
      "componentType": 5126,
      "count": 540,
      "max": [
        0.9998700022697449,
        0.9979299902915955,
        0.5368599891662598
      ],
      "min": [
        -0.995989978313446,
        -0.9979299902915955,
        0.48636001348495483
      ],
      "type": "VEC3"
    },
    {
      "bufferView": 2,
      "byteOffset": 770832,
      "componentType": 5126,
      "count": 540,
      "max": [
        0.998564600944519,
        0.998564600944519,
        1.0
      ],
      "min": [
        -0.9985629320144653,
        -0.9985629320144653,
        -0.5877128839492798
      ],
      "type": "VEC3"
    },
    {
      "bufferView": 1,
      "byteOffset": 254784,
      "componentType": 5126,
      "count": 540,
      "max": [
        0.9996899962425232,
        1.000309944152832
      ],
      "min": [
        -0.000699999975040555,
        -0.0006000000284984708
      ],
      "type": "VEC2"
    },
    {
      "bufferView": 0,
      "byteOffset": 450528,
      "componentType": 5125,
      "count": 2880,
      "type": "SCALAR"
    }
  ],
  "asset": {
    "extras": {
      "author": "Eternal Realm (https://sketchfab.com/EternalRealm)",
      "license": "CC-BY-4.0 (http://creativecommons.org/licenses/by/4.0/)",
      "source": "https://sketchfab.com/3d-models/amazon-echo-d09319ec6c8245f2bc7f20d96a4f328a",
      "title": "Amazon Echo"
    },
    "generator": "Sketchfab-12.66.0",
    "version": "2.0"
  },
  "bufferViews": [
    {
      "buffer": 0,
      "byteLength": 462048,
      "name": "floatBufferViews",
      "target": 34963
    },
    {
      "buffer": 0,
      "byteLength": 259104,
      "byteOffset": 462048,
      "byteStride": 8,
      "name": "floatBufferViews",
      "target": 34962
    },
    {
      "buffer": 0,
      "byteLength": 777312,
      "byteOffset": 721152,
      "byteStride": 12,
      "name": "floatBufferViews",
      "target": 34962
    }
  ],
  "buffers": [
    {
      "byteLength": 1498464,
      "uri": "scene.bin"
    }
  ],
  "extensionsRequired": [
    "KHR_materials_pbrSpecularGlossiness"
  ],
  "extensionsUsed": [
    "KHR_materials_pbrSpecularGlossiness"
  ],
  "images": [
    {
      "uri": "textures/blue_diffuse.png"
    }
  ],
  "materials": [
    {
      "doubleSided": true,
      "extensions": {
        "KHR_materials_pbrSpecularGlossiness": {
          "diffuseFactor": [
            0.026383080430379433,
            0.026383080430379433,
            0.026383080430379433,
            1.0
          ],
          "glossinessFactor": 0.3858612804878049,
          "specularFactor": [
            0.14107431122548625,
            0.14107431122548625,
            0.14107431122548625
          ]
        }
      },
      "name": "base"
    },
    {
      "doubleSided": true,
      "extensions": {
        "KHR_materials_pbrSpecularGlossiness": {
          "diffuseFactor": [
            0.0,
            0.0,
            0.0,
            1.0
          ],
          "glossinessFactor": 0.0,
          "specularFactor": [
            0.0,
            0.0,
            0.0
          ]
        }
      },
      "name": "material"
    },
    {
      "doubleSided": true,
      "extensions": {
        "KHR_materials_pbrSpecularGlossiness": {
          "diffuseFactor": [
            0.18272736393587025,
            0.18272736393587025,
            0.18272736393587025,
            1.0
          ],
          "glossinessFactor": 0.3431783536585366,
          "specularFactor": [
            0.4530459196144188,
            0.41816461107912933,
            0.41816461107912933
          ]
        }
      },
      "name": "gray"
    },
    {
      "doubleSided": true,
      "extensions": {
        "KHR_materials_pbrSpecularGlossiness": {
          "diffuseFactor": [
            0.398045601540723,
            0.398045601540723,
            0.398045601540723,
            1.0
          ],
          "glossinessFactor": 0.0,
          "specularFactor": [
            1.0,
            1.0,
            1.0
          ]
        }
      },
      "name": "white"
    },
    {
      "doubleSided": true,
      "emissiveFactor": [
        1.0,
        1.0,
        1.0
      ],
      "emissiveTexture": {
        "index": 0
      },
      "extensions": {
        "KHR_materials_pbrSpecularGlossiness": {
          "diffuseFactor": [
            1.0,
            1.0,
            1.0,
            1.0
          ],
          "diffuseTexture": {
            "index": 0
          },
          "glossinessFactor": 1.0,
          "specularFactor": [
            0.0,
            0.0,
            0.0
          ]
        }
      },
      "name": "blue"
    }
  ],
  "meshes": [
    {
      "name": "echo_0",
      "primitives": [
        {
          "attributes": {
            "NORMAL": 1,
            "POSITION": 0,
            "TEXCOORD_0": 2
          },
          "indices": 3,
          "material": 0,
          "mode": 4
        }
      ]
    },
    {
      "name": "echo_1",
      "primitives": [
        {
          "attributes": {
            "NORMAL": 5,
            "POSITION": 4,
            "TEXCOORD_0": 6
          },
          "indices": 7,
          "material": 1,
          "mode": 4
        }
      ]
    },
    {
      "name": "echo_2",
      "primitives": [
        {
          "attributes": {
            "NORMAL": 9,
            "POSITION": 8,
            "TEXCOORD_0": 10
          },
          "indices": 11,
          "material": 2,
          "mode": 4
        }
      ]
    },
    {
      "name": "echo_3",
      "primitives": [
        {
          "attributes": {
            "NORMAL": 13,
            "POSITION": 12,
            "TEXCOORD_0": 14
          },
          "indices": 15,
          "material": 3,
          "mode": 4
        }
      ]
    },
    {
      "name": "echo_4",
      "primitives": [
        {
          "attributes": {
            "NORMAL": 17,
            "POSITION": 16,
            "TEXCOORD_0": 18
          },
          "indices": 19,
          "material": 4,
          "mode": 4
        }
      ]
    },
    {
      "name": "echo_dot_0",
      "primitives": [
        {
          "attributes": {
            "NORMAL": 21,
            "POSITION": 20,
            "TEXCOORD_0": 22
          },
          "indices": 23,
          "material": 0,
          "mode": 4
        }
      ]
    },
    {
      "name": "echo_dot_1",
      "primitives": [
        {
          "attributes": {
            "NORMAL": 25,
            "POSITION": 24,
            "TEXCOORD_0": 26
          },
          "indices": 27,
          "material": 1,
          "mode": 4
        }
      ]
    },
    {
      "name": "echo_dot_2",
      "primitives": [
        {
          "attributes": {
            "NORMAL": 29,
            "POSITION": 28,
            "TEXCOORD_0": 30
          },
          "indices": 31,
          "material": 2,
          "mode": 4
        }
      ]
    },
    {
      "name": "echo_dot_3",
      "primitives": [
        {
          "attributes": {
            "NORMAL": 33,
            "POSITION": 32,
            "TEXCOORD_0": 34
          },
          "indices": 35,
          "material": 3,
          "mode": 4
        }
      ]
    },
    {
      "name": "echo_dot_4",
      "primitives": [
        {
          "attributes": {
            "NORMAL": 37,
            "POSITION": 36,
            "TEXCOORD_0": 38
          },
          "indices": 39,
          "material": 4,
          "mode": 4
        }
      ]
    }
  ],
  "nodes": [
    {
      "children": [
        1
      ],
      "matrix": [
        0.33998289704322815,
        0.0,
        0.0,
        0.0,
        0.0,
        7.549136805523119e-17,
        -0.33998289704322815,
        0.0,
        0.0,
        0.33998289704322815,
        7.549136805523119e-17,
        0.0,
        0.0,
        0.0,
        0.0,
        1.0
      ],
      "name": "Sketchfab_model"
    },
    {
      "children": [
        2,
        8,
        14,
        16
      ],
      "name": "Root"
    },
    {
      "children": [
        3,
        4,
        5,
        6,
        7
      ],
      "matrix": [
        1.00135,
        0.0,
        0.0,
        0.0,
        0.0,
        1.00135,
        0.0,
        0.0,
        0.0,
        0.0,
        1.00135,
        0.0,
        -1.30424,
        0.0,
        0.0,
        1.0
      ],
      "name": "echo"
    },
    {
      "mesh": 0,
      "name": "echo_0"
    },
    {
      "mesh": 1,
      "name": "echo_1"
    },
    {
      "mesh": 2,
      "name": "echo_2"
    },
    {
      "mesh": 3,
      "name": "echo_3"
    },
    {
      "mesh": 4,
      "name": "echo_4"
    },
    {
      "children": [
        9,
        10,
        11,
        12,
        13
      ],
      "matrix": [
        1.00135,
        0.0,
        0.0,
        0.0,
        0.0,
        1.00135,
        0.0,
        0.0,
        0.0,
        0.0,
        1.00135,
        0.0,
        1.33867,
        0.0,
        0.0,
        1.0
      ],
      "name": "echo_dot"
    },
    {
      "mesh": 5,
      "name": "echo_dot_0"
    },
    {
      "mesh": 6,
      "name": "echo_dot_1"
    },
    {
      "mesh": 7,
      "name": "echo_dot_2"
    },
    {
      "mesh": 8,
      "name": "echo_dot_3"
    },
    {
      "mesh": 9,
      "name": "echo_dot_4"
    },
    {
      "children": [
        15
      ],
      "matrix": [
        0.91288,
        -0.26222,
        0.31289000000000006,
        0.0,
        0.030290000000000004,
        0.80783,
        0.5886400000000002,
        0.0,
        -0.40711,
        -0.52788,
        0.7453900000000001,
        0.0,
        -6.5148399999999995,
        -4.342479999999999,
        4.10837,
        1.0
      ],
      "name": "Sun"
    },
    {
      "name": "Sun"
    },
    {
      "children": [
        17
      ],
      "matrix": [
        0.5285099999999999,
        0.78778,
        0.3163700000000001,
        0.0,
        -0.4398700000000001,
        -0.06463000000000002,
        0.8957300000000001,
        0.0,
        0.7260800000000001,
        -0.61256,
        0.3123600000000001,
        0.0,
        6.038860000000001,
        -2.7642100000000003,
        3.44192,
        1.0
      ],
      "name": "Sun.001"
    },
    {
      "name": "Sun.001"
    }
  ],
  "samplers": [
    {
      "magFilter": 9729,
      "minFilter": 9987,
      "wrapS": 10497,
      "wrapT": 10497
    }
  ],
  "scene": 0,
  "scenes": [
    {
      "name": "Sketchfab_Scene",
      "nodes": [
        0
      ]
    }
  ],
  "textures": [
    {
      "sampler": 0,
      "source": 0
    }
  ]
}
